<mxfile host="app.diagrams.net" modified="2023-12-28T06:09:34.217Z" agent="Mozilla/5.0 (Windows NT 10.0; Win64; x64) AppleWebKit/537.36 (KHTML, like Gecko) Chrome/120.0.0.0 Safari/537.36" etag="biuaUCrHchVza1x6Capc" version="22.1.15" type="device">
  <diagram name="Page-1" id="c4acf3e9-155e-7222-9cf6-157b1a14988f">
    <mxGraphModel dx="1434" dy="1880" grid="0" gridSize="10" guides="1" tooltips="1" connect="1" arrows="1" fold="1" page="1" pageScale="1" pageWidth="850" pageHeight="1100" background="none" math="0" shadow="0">
      <root>
        <mxCell id="0" />
        <mxCell id="1" parent="0" />
        <mxCell id="hopD-SCEnYGvzA_qel6d-4" value="Field" style="swimlane;fontStyle=2;align=center;verticalAlign=top;childLayout=stackLayout;horizontal=1;startSize=26;horizontalStack=0;resizeParent=1;resizeParentMax=0;resizeLast=0;collapsible=1;marginBottom=0;whiteSpace=wrap;html=1;sketch=1;hachureGap=4;jiggle=2;curveFitting=1;fontFamily=Architects Daughter;fontSource=https%3A%2F%2Ffonts.googleapis.com%2Fcss%3Ffamily%3DArchitects%2BDaughter;fontSize=20;swimlaneFillColor=none;labelBackgroundColor=none;rounded=1;fillStyle=solid;fillColor=#67AB9F;" parent="1" vertex="1">
          <mxGeometry x="755" y="153" width="210" height="34" as="geometry">
            <mxRectangle x="470" y="540" width="80" height="40" as="alternateBounds" />
          </mxGeometry>
        </mxCell>
        <mxCell id="hopD-SCEnYGvzA_qel6d-12" value="ABC" style="swimlane;fontStyle=1;align=center;verticalAlign=top;childLayout=stackLayout;horizontal=1;startSize=26;horizontalStack=0;resizeParent=1;resizeParentMax=0;resizeLast=0;collapsible=1;marginBottom=0;whiteSpace=wrap;html=1;sketch=1;hachureGap=4;jiggle=2;curveFitting=1;fontFamily=Architects Daughter;fontSource=https%3A%2F%2Ffonts.googleapis.com%2Fcss%3Ffamily%3DArchitects%2BDaughter;fontSize=20;swimlaneFillColor=none;labelBackgroundColor=none;rounded=1;fillStyle=solid;fillColor=#67AB9F;" parent="1" vertex="1">
          <mxGeometry x="785" y="-408" width="271" height="57" as="geometry">
            <mxRectangle x="470" y="540" width="80" height="40" as="alternateBounds" />
          </mxGeometry>
        </mxCell>
        <mxCell id="hopD-SCEnYGvzA_qel6d-14" value="" style="endArrow=block;endFill=0;endSize=12;html=1;rounded=0;sketch=1;hachureGap=4;jiggle=2;curveFitting=1;fontFamily=Architects Daughter;fontSource=https%3A%2F%2Ffonts.googleapis.com%2Fcss%3Ffamily%3DArchitects%2BDaughter;fontSize=16;entryX=0.5;entryY=1;entryDx=0;entryDy=0;edgeStyle=orthogonalEdgeStyle;curved=1;startArrow=none;startFill=0;exitX=0;exitY=0;exitDx=0;exitDy=0;" parent="1" source="hopD-SCEnYGvzA_qel6d-4" target="hopD-SCEnYGvzA_qel6d-12" edge="1">
          <mxGeometry width="160" relative="1" as="geometry">
            <mxPoint x="847" y="472" as="sourcePoint" />
            <mxPoint x="1007" y="471.5" as="targetPoint" />
          </mxGeometry>
        </mxCell>
        <mxCell id="hopD-SCEnYGvzA_qel6d-15" value="Tag" style="swimlane;fontStyle=1;align=center;verticalAlign=top;childLayout=stackLayout;horizontal=1;startSize=26;horizontalStack=0;resizeParent=1;resizeParentMax=0;resizeLast=0;collapsible=1;marginBottom=0;whiteSpace=wrap;html=1;sketch=1;hachureGap=4;jiggle=2;curveFitting=1;fontFamily=Architects Daughter;fontSource=https%3A%2F%2Ffonts.googleapis.com%2Fcss%3Ffamily%3DArchitects%2BDaughter;fontSize=20;swimlaneFillColor=none;labelBackgroundColor=none;rounded=1;fillStyle=solid;gradientColor=none;fillColor=#67AB9F;" parent="1" vertex="1">
          <mxGeometry x="1416" y="244" width="210" height="34" as="geometry">
            <mxRectangle x="470" y="540" width="80" height="40" as="alternateBounds" />
          </mxGeometry>
        </mxCell>
        <mxCell id="hopD-SCEnYGvzA_qel6d-16" value="Company" style="swimlane;fontStyle=1;align=center;verticalAlign=top;childLayout=stackLayout;horizontal=1;startSize=26;horizontalStack=0;resizeParent=1;resizeParentMax=0;resizeLast=0;collapsible=1;marginBottom=0;whiteSpace=wrap;html=1;sketch=1;hachureGap=4;jiggle=2;curveFitting=1;fontFamily=Architects Daughter;fontSource=https%3A%2F%2Ffonts.googleapis.com%2Fcss%3Ffamily%3DArchitects%2BDaughter;fontSize=20;swimlaneFillColor=none;labelBackgroundColor=none;rounded=1;fillStyle=solid;fillColor=#67AB9F;" parent="1" vertex="1">
          <mxGeometry x="493" y="50" width="210" height="34" as="geometry">
            <mxRectangle x="470" y="540" width="80" height="40" as="alternateBounds" />
          </mxGeometry>
        </mxCell>
        <mxCell id="hopD-SCEnYGvzA_qel6d-17" value="Phone" style="swimlane;fontStyle=1;align=center;verticalAlign=top;childLayout=stackLayout;horizontal=1;startSize=26;horizontalStack=0;resizeParent=1;resizeParentMax=0;resizeLast=0;collapsible=1;marginBottom=0;whiteSpace=wrap;html=1;sketch=1;hachureGap=4;jiggle=2;curveFitting=1;fontFamily=Architects Daughter;fontSource=https%3A%2F%2Ffonts.googleapis.com%2Fcss%3Ffamily%3DArchitects%2BDaughter;fontSize=20;swimlaneFillColor=none;labelBackgroundColor=none;rounded=1;fillStyle=solid;fillColor=#67AB9F;" parent="1" vertex="1">
          <mxGeometry x="465" y="214" width="210" height="34" as="geometry">
            <mxRectangle x="470" y="540" width="80" height="40" as="alternateBounds" />
          </mxGeometry>
        </mxCell>
        <mxCell id="hopD-SCEnYGvzA_qel6d-19" value="Name" style="swimlane;fontStyle=1;align=center;verticalAlign=top;childLayout=stackLayout;horizontal=1;startSize=26;horizontalStack=0;resizeParent=1;resizeParentMax=0;resizeLast=0;collapsible=1;marginBottom=0;whiteSpace=wrap;html=1;sketch=1;hachureGap=4;jiggle=2;curveFitting=1;fontFamily=Architects Daughter;fontSource=https%3A%2F%2Ffonts.googleapis.com%2Fcss%3Ffamily%3DArchitects%2BDaughter;fontSize=20;swimlaneFillColor=none;labelBackgroundColor=none;rounded=1;fillStyle=solid;fillColor=#67AB9F;" parent="1" vertex="1">
          <mxGeometry x="1158" y="305" width="210" height="34" as="geometry">
            <mxRectangle x="470" y="540" width="80" height="40" as="alternateBounds" />
          </mxGeometry>
        </mxCell>
        <mxCell id="hopD-SCEnYGvzA_qel6d-21" value="Address" style="swimlane;fontStyle=1;align=center;verticalAlign=top;childLayout=stackLayout;horizontal=1;startSize=26;horizontalStack=0;resizeParent=1;resizeParentMax=0;resizeLast=0;collapsible=1;marginBottom=0;whiteSpace=wrap;html=1;sketch=1;hachureGap=4;jiggle=2;curveFitting=1;fontFamily=Architects Daughter;fontSource=https%3A%2F%2Ffonts.googleapis.com%2Fcss%3Ffamily%3DArchitects%2BDaughter;fontSize=20;swimlaneFillColor=default;labelBackgroundColor=none;rounded=1;fillStyle=solid;fillColor=#67AB9F;" parent="1" vertex="1">
          <mxGeometry x="1192" y="409" width="210" height="34" as="geometry">
            <mxRectangle x="470" y="540" width="80" height="40" as="alternateBounds" />
          </mxGeometry>
        </mxCell>
        <mxCell id="hopD-SCEnYGvzA_qel6d-23" value="Comment" style="swimlane;fontStyle=1;align=center;verticalAlign=top;childLayout=stackLayout;horizontal=1;startSize=26;horizontalStack=0;resizeParent=1;resizeParentMax=0;resizeLast=0;collapsible=1;marginBottom=0;whiteSpace=wrap;html=1;sketch=1;hachureGap=4;jiggle=2;curveFitting=1;fontFamily=Architects Daughter;fontSource=https%3A%2F%2Ffonts.googleapis.com%2Fcss%3Ffamily%3DArchitects%2BDaughter;fontSize=20;swimlaneFillColor=none;labelBackgroundColor=none;rounded=1;fillStyle=solid;fillColor=#67AB9F;" parent="1" vertex="1">
          <mxGeometry x="809" y="447" width="210" height="34" as="geometry">
            <mxRectangle x="470" y="540" width="80" height="40" as="alternateBounds" />
          </mxGeometry>
        </mxCell>
        <mxCell id="hopD-SCEnYGvzA_qel6d-24" value="Birthday" style="swimlane;fontStyle=1;align=center;verticalAlign=top;childLayout=stackLayout;horizontal=1;startSize=26;horizontalStack=0;resizeParent=1;resizeParentMax=0;resizeLast=0;collapsible=1;marginBottom=0;whiteSpace=wrap;html=1;sketch=1;hachureGap=4;jiggle=2;curveFitting=1;fontFamily=Architects Daughter;fontSource=https%3A%2F%2Ffonts.googleapis.com%2Fcss%3Ffamily%3DArchitects%2BDaughter;fontSize=20;swimlaneFillColor=none;labelBackgroundColor=none;rounded=1;fillStyle=solid;fillColor=#67AB9F;" parent="1" vertex="1">
          <mxGeometry x="1142" y="537" width="210" height="34" as="geometry">
            <mxRectangle x="470" y="540" width="80" height="40" as="alternateBounds" />
          </mxGeometry>
        </mxCell>
        <mxCell id="hopD-SCEnYGvzA_qel6d-25" value="&amp;nbsp; &amp;nbsp; &amp;nbsp; &amp;nbsp; &amp;nbsp; &amp;nbsp; &amp;nbsp;Record&lt;br&gt;Phones&lt;br&gt;Tags&lt;br&gt;Company&lt;br&gt;Address&lt;br&gt;Comment&lt;br&gt;Birthday&lt;br&gt;Name&lt;br&gt;&lt;hr&gt;" style="swimlane;fontStyle=1;align=left;verticalAlign=top;childLayout=stackLayout;horizontal=1;startSize=26;horizontalStack=0;resizeParent=1;resizeParentMax=0;resizeLast=0;collapsible=1;marginBottom=0;whiteSpace=wrap;html=1;sketch=1;hachureGap=4;jiggle=2;curveFitting=1;fontFamily=Architects Daughter;fontSource=https%3A%2F%2Ffonts.googleapis.com%2Fcss%3Ffamily%3DArchitects%2BDaughter;fontSize=20;swimlaneFillColor=default;labelBackgroundColor=none;rounded=1;fillStyle=solid;fillColor=#67AB9F;strokeColor=#82b366;" parent="1" vertex="1">
          <mxGeometry x="126" y="-182" width="261" height="211" as="geometry">
            <mxRectangle x="470" y="540" width="80" height="40" as="alternateBounds" />
          </mxGeometry>
        </mxCell>
        <mxCell id="hopD-SCEnYGvzA_qel6d-39" value="" style="endArrow=block;endFill=0;endSize=12;html=1;rounded=0;sketch=1;hachureGap=4;jiggle=2;curveFitting=1;fontFamily=Architects Daughter;fontSource=https%3A%2F%2Ffonts.googleapis.com%2Fcss%3Ffamily%3DArchitects%2BDaughter;fontSize=16;exitX=0;exitY=0;exitDx=0;exitDy=0;entryX=0;entryY=0.75;entryDx=0;entryDy=0;strokeWidth=1;" parent="1" source="hopD-SCEnYGvzA_qel6d-17" target="hopD-SCEnYGvzA_qel6d-4" edge="1">
          <mxGeometry width="160" relative="1" as="geometry">
            <mxPoint x="857" y="481.5" as="sourcePoint" />
            <mxPoint x="813" y="488" as="targetPoint" />
          </mxGeometry>
        </mxCell>
        <mxCell id="hopD-SCEnYGvzA_qel6d-40" value="" style="endArrow=block;endFill=0;endSize=12;html=1;rounded=0;sketch=1;hachureGap=4;jiggle=2;curveFitting=1;fontFamily=Architects Daughter;fontSource=https%3A%2F%2Ffonts.googleapis.com%2Fcss%3Ffamily%3DArchitects%2BDaughter;fontSize=16;exitX=1;exitY=1;exitDx=0;exitDy=0;entryX=0;entryY=0;entryDx=0;entryDy=0;strokeWidth=1;" parent="1" source="hopD-SCEnYGvzA_qel6d-16" target="hopD-SCEnYGvzA_qel6d-4" edge="1">
          <mxGeometry width="160" relative="1" as="geometry">
            <mxPoint x="885" y="595" as="sourcePoint" />
            <mxPoint x="830" y="486" as="targetPoint" />
          </mxGeometry>
        </mxCell>
        <mxCell id="hopD-SCEnYGvzA_qel6d-41" value="" style="endArrow=block;endFill=0;endSize=12;html=1;rounded=0;sketch=1;hachureGap=4;jiggle=2;curveFitting=1;fontFamily=Architects Daughter;fontSource=https%3A%2F%2Ffonts.googleapis.com%2Fcss%3Ffamily%3DArchitects%2BDaughter;fontSize=16;exitX=0;exitY=0;exitDx=0;exitDy=0;entryX=1;entryY=1;entryDx=0;entryDy=0;strokeWidth=1;" parent="1" source="hopD-SCEnYGvzA_qel6d-21" target="hopD-SCEnYGvzA_qel6d-4" edge="1">
          <mxGeometry width="160" relative="1" as="geometry">
            <mxPoint x="881" y="647" as="sourcePoint" />
            <mxPoint x="752" y="493" as="targetPoint" />
          </mxGeometry>
        </mxCell>
        <mxCell id="hopD-SCEnYGvzA_qel6d-46" value="" style="endArrow=block;endFill=0;endSize=12;html=1;rounded=0;sketch=1;hachureGap=4;jiggle=2;curveFitting=1;fontFamily=Architects Daughter;fontSource=https%3A%2F%2Ffonts.googleapis.com%2Fcss%3Ffamily%3DArchitects%2BDaughter;fontSize=16;exitX=0;exitY=0.75;exitDx=0;exitDy=0;entryX=1;entryY=1;entryDx=0;entryDy=0;strokeWidth=1;" parent="1" source="hopD-SCEnYGvzA_qel6d-24" target="hopD-SCEnYGvzA_qel6d-4" edge="1">
          <mxGeometry width="160" relative="1" as="geometry">
            <mxPoint x="1125.000000000001" y="512" as="sourcePoint" />
            <mxPoint x="987.9999999999991" y="194" as="targetPoint" />
          </mxGeometry>
        </mxCell>
        <mxCell id="hopD-SCEnYGvzA_qel6d-47" value="" style="endArrow=block;endFill=0;endSize=12;html=1;rounded=0;sketch=1;hachureGap=4;jiggle=2;curveFitting=1;fontFamily=Architects Daughter;fontSource=https%3A%2F%2Ffonts.googleapis.com%2Fcss%3Ffamily%3DArchitects%2BDaughter;fontSize=16;exitX=0;exitY=0.25;exitDx=0;exitDy=0;entryX=0.25;entryY=1;entryDx=0;entryDy=0;strokeWidth=1;" parent="1" source="hopD-SCEnYGvzA_qel6d-20" target="hopD-SCEnYGvzA_qel6d-4" edge="1">
          <mxGeometry width="160" relative="1" as="geometry">
            <mxPoint x="879" y="749" as="sourcePoint" />
            <mxPoint x="740" y="502" as="targetPoint" />
          </mxGeometry>
        </mxCell>
        <mxCell id="hopD-SCEnYGvzA_qel6d-48" value="" style="endArrow=block;endFill=0;endSize=12;html=1;rounded=0;sketch=1;hachureGap=4;jiggle=2;curveFitting=1;fontFamily=Architects Daughter;fontSource=https%3A%2F%2Ffonts.googleapis.com%2Fcss%3Ffamily%3DArchitects%2BDaughter;fontSize=16;exitX=0;exitY=0.25;exitDx=0;exitDy=0;entryX=1;entryY=0;entryDx=0;entryDy=0;strokeWidth=1;" parent="1" source="hopD-SCEnYGvzA_qel6d-15" target="hopD-SCEnYGvzA_qel6d-4" edge="1">
          <mxGeometry width="160" relative="1" as="geometry">
            <mxPoint x="889" y="759" as="sourcePoint" />
            <mxPoint x="677" y="491" as="targetPoint" />
          </mxGeometry>
        </mxCell>
        <mxCell id="hopD-SCEnYGvzA_qel6d-49" value="" style="endArrow=block;endFill=0;endSize=12;html=1;rounded=0;sketch=1;hachureGap=4;jiggle=2;curveFitting=1;fontFamily=Architects Daughter;fontSource=https%3A%2F%2Ffonts.googleapis.com%2Fcss%3Ffamily%3DArchitects%2BDaughter;fontSize=16;exitX=0;exitY=0.25;exitDx=0;exitDy=0;strokeWidth=1;entryX=0.5;entryY=1;entryDx=0;entryDy=0;" parent="1" source="hopD-SCEnYGvzA_qel6d-23" target="hopD-SCEnYGvzA_qel6d-4" edge="1">
          <mxGeometry width="160" relative="1" as="geometry">
            <mxPoint x="899" y="769" as="sourcePoint" />
            <mxPoint x="954" y="185" as="targetPoint" />
          </mxGeometry>
        </mxCell>
        <mxCell id="hopD-SCEnYGvzA_qel6d-50" value="" style="endArrow=block;endFill=0;endSize=12;html=1;rounded=0;sketch=1;hachureGap=4;jiggle=2;curveFitting=1;fontFamily=Architects Daughter;fontSource=https%3A%2F%2Ffonts.googleapis.com%2Fcss%3Ffamily%3DArchitects%2BDaughter;fontSize=16;exitX=0;exitY=0;exitDx=0;exitDy=0;entryX=1;entryY=1;entryDx=0;entryDy=0;strokeWidth=1;" parent="1" source="hopD-SCEnYGvzA_qel6d-19" target="hopD-SCEnYGvzA_qel6d-4" edge="1">
          <mxGeometry width="160" relative="1" as="geometry">
            <mxPoint x="909" y="779" as="sourcePoint" />
            <mxPoint x="770" y="532" as="targetPoint" />
          </mxGeometry>
        </mxCell>
        <mxCell id="hopD-SCEnYGvzA_qel6d-51" value="1" style="endArrow=open;html=1;endSize=12;startArrow=diamondThin;startSize=14;startFill=1;edgeStyle=orthogonalEdgeStyle;align=left;verticalAlign=bottom;rounded=0;sketch=1;hachureGap=4;jiggle=2;curveFitting=1;fontFamily=Architects Daughter;fontSource=https%3A%2F%2Ffonts.googleapis.com%2Fcss%3Ffamily%3DArchitects%2BDaughter;fontSize=16;entryX=0;entryY=0.5;entryDx=0;entryDy=0;curved=1;exitX=1;exitY=0.5;exitDx=0;exitDy=0;" parent="1" source="hopD-SCEnYGvzA_qel6d-25" target="hopD-SCEnYGvzA_qel6d-19" edge="1">
          <mxGeometry x="-1" y="3" relative="1" as="geometry">
            <mxPoint x="400" y="551" as="sourcePoint" />
            <mxPoint x="587" y="912" as="targetPoint" />
            <Array as="points">
              <mxPoint x="387" y="19" />
              <mxPoint x="391" y="19" />
              <mxPoint x="391" y="969" />
              <mxPoint x="1060" y="969" />
              <mxPoint x="1060" y="337" />
            </Array>
          </mxGeometry>
        </mxCell>
        <mxCell id="hopD-SCEnYGvzA_qel6d-56" value="1" style="endArrow=open;html=1;endSize=12;startArrow=diamondThin;startSize=14;startFill=1;edgeStyle=orthogonalEdgeStyle;align=left;verticalAlign=bottom;rounded=0;sketch=1;hachureGap=4;jiggle=2;curveFitting=1;fontFamily=Architects Daughter;fontSource=https%3A%2F%2Ffonts.googleapis.com%2Fcss%3Ffamily%3DArchitects%2BDaughter;fontSize=16;exitX=0.75;exitY=1;exitDx=0;exitDy=0;entryX=0;entryY=0.75;entryDx=0;entryDy=0;curved=1;" parent="1" source="hopD-SCEnYGvzA_qel6d-25" target="hopD-SCEnYGvzA_qel6d-17" edge="1">
          <mxGeometry x="-1" y="3" relative="1" as="geometry">
            <mxPoint x="629" y="801" as="sourcePoint" />
            <mxPoint x="1164" y="614" as="targetPoint" />
            <Array as="points">
              <mxPoint x="322" y="39" />
              <mxPoint x="327" y="39" />
              <mxPoint x="327" y="126" />
              <mxPoint x="337" y="126" />
              <mxPoint x="337" y="260" />
              <mxPoint x="368" y="260" />
              <mxPoint x="368" y="417" />
              <mxPoint x="467" y="417" />
              <mxPoint x="467" y="305" />
              <mxPoint x="445" y="305" />
            </Array>
          </mxGeometry>
        </mxCell>
        <mxCell id="hopD-SCEnYGvzA_qel6d-57" value="1" style="endArrow=open;html=1;endSize=12;startArrow=diamondThin;startSize=14;startFill=1;edgeStyle=orthogonalEdgeStyle;align=left;verticalAlign=bottom;rounded=0;sketch=1;hachureGap=4;jiggle=2;curveFitting=1;fontFamily=Architects Daughter;fontSource=https%3A%2F%2Ffonts.googleapis.com%2Fcss%3Ffamily%3DArchitects%2BDaughter;fontSize=16;exitX=1;exitY=0;exitDx=0;exitDy=0;entryX=0;entryY=0;entryDx=0;entryDy=0;curved=1;strokeWidth=1;" parent="1" source="hopD-SCEnYGvzA_qel6d-25" target="hopD-SCEnYGvzA_qel6d-16" edge="1">
          <mxGeometry x="-1" y="3" relative="1" as="geometry">
            <mxPoint x="356" y="569" as="sourcePoint" />
            <mxPoint x="1105" y="602" as="targetPoint" />
            <Array as="points">
              <mxPoint x="387" y="-97" />
              <mxPoint x="448" y="-97" />
              <mxPoint x="448" y="-46" />
              <mxPoint x="455" y="-46" />
            </Array>
          </mxGeometry>
        </mxCell>
        <mxCell id="hopD-SCEnYGvzA_qel6d-58" value="1" style="endArrow=open;html=1;endSize=12;startArrow=diamondThin;startSize=14;startFill=1;edgeStyle=orthogonalEdgeStyle;align=left;verticalAlign=bottom;rounded=0;sketch=1;hachureGap=4;jiggle=2;curveFitting=1;fontFamily=Architects Daughter;fontSource=https%3A%2F%2Ffonts.googleapis.com%2Fcss%3Ffamily%3DArchitects%2BDaughter;fontSize=16;entryX=1;entryY=0.25;entryDx=0;entryDy=0;exitX=0.5;exitY=1;exitDx=0;exitDy=0;curved=1;" parent="1" source="hopD-SCEnYGvzA_qel6d-25" target="hopD-SCEnYGvzA_qel6d-21" edge="1">
          <mxGeometry x="-1" y="3" relative="1" as="geometry">
            <mxPoint x="371" y="567" as="sourcePoint" />
            <mxPoint x="1105" y="622" as="targetPoint" />
            <Array as="points">
              <mxPoint x="257" y="992" />
              <mxPoint x="1437" y="992" />
              <mxPoint x="1437" y="443" />
            </Array>
          </mxGeometry>
        </mxCell>
        <mxCell id="hopD-SCEnYGvzA_qel6d-60" value="1" style="endArrow=open;html=1;endSize=12;startArrow=diamondThin;startSize=14;startFill=1;edgeStyle=orthogonalEdgeStyle;align=left;verticalAlign=bottom;rounded=0;sketch=1;hachureGap=4;jiggle=2;curveFitting=1;fontFamily=Architects Daughter;fontSource=https%3A%2F%2Ffonts.googleapis.com%2Fcss%3Ffamily%3DArchitects%2BDaughter;fontSize=16;entryX=1;entryY=0.5;entryDx=0;entryDy=0;exitX=0.25;exitY=1;exitDx=0;exitDy=0;curved=1;" parent="1" source="hopD-SCEnYGvzA_qel6d-25" target="hopD-SCEnYGvzA_qel6d-20" edge="1">
          <mxGeometry x="-1" y="3" relative="1" as="geometry">
            <mxPoint x="306" y="569" as="sourcePoint" />
            <mxPoint x="1095" y="612" as="targetPoint" />
            <Array as="points">
              <mxPoint x="191" y="779" />
              <mxPoint x="922" y="779" />
              <mxPoint x="922" y="641" />
            </Array>
          </mxGeometry>
        </mxCell>
        <mxCell id="hopD-SCEnYGvzA_qel6d-61" value="1" style="endArrow=open;html=1;endSize=12;startArrow=diamondThin;startSize=14;startFill=1;edgeStyle=orthogonalEdgeStyle;align=left;verticalAlign=bottom;rounded=0;sketch=1;hachureGap=4;jiggle=2;curveFitting=1;fontFamily=Architects Daughter;fontSource=https%3A%2F%2Ffonts.googleapis.com%2Fcss%3Ffamily%3DArchitects%2BDaughter;fontSize=16;entryX=1.033;entryY=0.471;entryDx=0;entryDy=0;entryPerimeter=0;exitX=0;exitY=0.75;exitDx=0;exitDy=0;curved=1;" parent="1" source="hopD-SCEnYGvzA_qel6d-25" target="hopD-SCEnYGvzA_qel6d-23" edge="1">
          <mxGeometry x="-1" y="3" relative="1" as="geometry">
            <mxPoint x="181" y="560" as="sourcePoint" />
            <mxPoint x="1104" y="639" as="targetPoint" />
            <Array as="points">
              <mxPoint x="116" y="-24" />
              <mxPoint x="116" y="869" />
              <mxPoint x="966" y="869" />
            </Array>
          </mxGeometry>
        </mxCell>
        <mxCell id="hopD-SCEnYGvzA_qel6d-62" value="1" style="endArrow=open;html=1;endSize=12;startArrow=diamondThin;startSize=14;startFill=1;edgeStyle=orthogonalEdgeStyle;align=left;verticalAlign=bottom;rounded=0;sketch=1;hachureGap=4;jiggle=2;curveFitting=1;fontFamily=Architects Daughter;fontSource=https%3A%2F%2Ffonts.googleapis.com%2Fcss%3Ffamily%3DArchitects%2BDaughter;fontSize=16;entryX=0;entryY=1;entryDx=0;entryDy=0;exitX=0.5;exitY=1;exitDx=0;exitDy=0;curved=1;" parent="1" source="hopD-SCEnYGvzA_qel6d-25" target="hopD-SCEnYGvzA_qel6d-24" edge="1">
          <mxGeometry x="-1" y="3" relative="1" as="geometry">
            <mxPoint x="220" y="585" as="sourcePoint" />
            <mxPoint x="1056" y="989" as="targetPoint" />
            <Array as="points">
              <mxPoint x="257" y="757" />
              <mxPoint x="531" y="757" />
              <mxPoint x="531" y="767" />
              <mxPoint x="959" y="767" />
            </Array>
          </mxGeometry>
        </mxCell>
        <mxCell id="hopD-SCEnYGvzA_qel6d-63" value="NoteID" style="swimlane;fontStyle=1;align=center;verticalAlign=top;childLayout=stackLayout;horizontal=1;startSize=26;horizontalStack=0;resizeParent=1;resizeParentMax=0;resizeLast=0;collapsible=1;marginBottom=0;whiteSpace=wrap;html=1;sketch=1;hachureGap=4;jiggle=2;curveFitting=1;fontFamily=Architects Daughter;fontSource=https%3A%2F%2Ffonts.googleapis.com%2Fcss%3Ffamily%3DArchitects%2BDaughter;fontSize=20;swimlaneFillColor=none;labelBackgroundColor=none;rounded=1;fillColor=#67AB9F;fillStyle=solid;" parent="1" vertex="1">
          <mxGeometry x="996" y="-67" width="210" height="34" as="geometry">
            <mxRectangle x="470" y="540" width="80" height="40" as="alternateBounds" />
          </mxGeometry>
        </mxCell>
        <mxCell id="hopD-SCEnYGvzA_qel6d-64" value="Title" style="swimlane;fontStyle=1;align=center;verticalAlign=top;childLayout=stackLayout;horizontal=1;startSize=26;horizontalStack=0;resizeParent=1;resizeParentMax=0;resizeLast=0;collapsible=1;marginBottom=0;whiteSpace=wrap;html=1;sketch=1;hachureGap=4;jiggle=2;curveFitting=1;fontFamily=Architects Daughter;fontSource=https%3A%2F%2Ffonts.googleapis.com%2Fcss%3Ffamily%3DArchitects%2BDaughter;fontSize=20;swimlaneFillColor=none;labelBackgroundColor=none;rounded=1;fillColor=#67AB9F;fillStyle=solid;" parent="1" vertex="1">
          <mxGeometry x="1412" y="115" width="210" height="34" as="geometry">
            <mxRectangle x="470" y="540" width="80" height="40" as="alternateBounds" />
          </mxGeometry>
        </mxCell>
        <mxCell id="hopD-SCEnYGvzA_qel6d-65" value="Note" style="swimlane;fontStyle=1;align=center;verticalAlign=top;childLayout=stackLayout;horizontal=1;startSize=26;horizontalStack=0;resizeParent=1;resizeParentMax=0;resizeLast=0;collapsible=1;marginBottom=0;whiteSpace=wrap;html=1;sketch=1;hachureGap=4;jiggle=2;curveFitting=1;fontFamily=Architects Daughter;fontSource=https%3A%2F%2Ffonts.googleapis.com%2Fcss%3Ffamily%3DArchitects%2BDaughter;fontSize=20;swimlaneFillColor=none;labelBackgroundColor=none;rounded=1;fillColor=#67AB9F;fillStyle=solid;" parent="1" vertex="1">
          <mxGeometry x="1684" y="53" width="210" height="34" as="geometry">
            <mxRectangle x="470" y="540" width="80" height="40" as="alternateBounds" />
          </mxGeometry>
        </mxCell>
        <mxCell id="hopD-SCEnYGvzA_qel6d-68" value="&amp;nbsp; &amp;nbsp; &amp;nbsp; &amp;nbsp; &amp;nbsp; &amp;nbsp; &amp;nbsp;NotesRecord&lt;br&gt;Note&lt;br&gt;Tittle&lt;br&gt;NoteId&lt;br&gt;Tags&lt;br&gt;&lt;br&gt;&lt;br&gt;" style="swimlane;fontStyle=1;align=left;verticalAlign=top;childLayout=stackLayout;horizontal=1;startSize=26;horizontalStack=0;resizeParent=1;resizeParentMax=0;resizeLast=0;collapsible=1;marginBottom=0;whiteSpace=wrap;html=1;sketch=1;hachureGap=4;jiggle=2;curveFitting=1;fontFamily=Architects Daughter;fontSource=https%3A%2F%2Ffonts.googleapis.com%2Fcss%3Ffamily%3DArchitects%2BDaughter;fontSize=20;swimlaneFillColor=none;labelBackgroundColor=none;rounded=1;fillColor=#67AB9F;fillStyle=solid;" parent="1" vertex="1">
          <mxGeometry x="1331" y="-226" width="268" height="144" as="geometry">
            <mxRectangle x="470" y="540" width="80" height="40" as="alternateBounds" />
          </mxGeometry>
        </mxCell>
        <mxCell id="hopD-SCEnYGvzA_qel6d-69" value="1" style="endArrow=open;html=1;endSize=12;startArrow=diamondThin;startSize=14;startFill=1;edgeStyle=orthogonalEdgeStyle;align=left;verticalAlign=bottom;rounded=0;sketch=1;hachureGap=4;jiggle=2;curveFitting=1;fontFamily=Architects Daughter;fontSource=https%3A%2F%2Ffonts.googleapis.com%2Fcss%3Ffamily%3DArchitects%2BDaughter;fontSize=16;exitX=0;exitY=1;exitDx=0;exitDy=0;entryX=1;entryY=0.5;entryDx=0;entryDy=0;curved=1;" parent="1" source="hopD-SCEnYGvzA_qel6d-68" target="hopD-SCEnYGvzA_qel6d-63" edge="1">
          <mxGeometry x="-1" y="3" relative="1" as="geometry">
            <mxPoint x="881" y="979" as="sourcePoint" />
            <mxPoint x="980" y="183" as="targetPoint" />
          </mxGeometry>
        </mxCell>
        <mxCell id="hopD-SCEnYGvzA_qel6d-70" value="1" style="endArrow=open;html=1;endSize=12;startArrow=diamondThin;startSize=14;startFill=1;edgeStyle=orthogonalEdgeStyle;align=left;verticalAlign=bottom;rounded=0;sketch=1;hachureGap=4;jiggle=2;curveFitting=1;fontFamily=Architects Daughter;fontSource=https%3A%2F%2Ffonts.googleapis.com%2Fcss%3Ffamily%3DArchitects%2BDaughter;fontSize=16;curved=1;exitX=0.5;exitY=1;exitDx=0;exitDy=0;entryX=1;entryY=0;entryDx=0;entryDy=0;" parent="1" source="hopD-SCEnYGvzA_qel6d-68" target="hopD-SCEnYGvzA_qel6d-64" edge="1">
          <mxGeometry x="-1" y="3" relative="1" as="geometry">
            <mxPoint x="1232" y="333" as="sourcePoint" />
            <mxPoint x="1529" y="15" as="targetPoint" />
            <Array as="points">
              <mxPoint x="1465" y="-13" />
              <mxPoint x="1452" y="-13" />
              <mxPoint x="1452" y="15" />
              <mxPoint x="1599" y="15" />
              <mxPoint x="1599" y="115" />
            </Array>
          </mxGeometry>
        </mxCell>
        <mxCell id="hopD-SCEnYGvzA_qel6d-71" value="1" style="endArrow=open;html=1;endSize=12;startArrow=diamondThin;startSize=14;startFill=1;edgeStyle=orthogonalEdgeStyle;align=left;verticalAlign=bottom;rounded=0;sketch=1;hachureGap=4;jiggle=2;curveFitting=1;fontFamily=Architects Daughter;fontSource=https%3A%2F%2Ffonts.googleapis.com%2Fcss%3Ffamily%3DArchitects%2BDaughter;fontSize=16;entryX=1;entryY=0;entryDx=0;entryDy=0;curved=1;exitX=0.25;exitY=1;exitDx=0;exitDy=0;" parent="1" source="hopD-SCEnYGvzA_qel6d-68" target="hopD-SCEnYGvzA_qel6d-65" edge="1">
          <mxGeometry x="-1" y="3" relative="1" as="geometry">
            <mxPoint x="1256" y="327" as="sourcePoint" />
            <mxPoint x="1003" y="80" as="targetPoint" />
          </mxGeometry>
        </mxCell>
        <mxCell id="hopD-SCEnYGvzA_qel6d-72" value="1" style="endArrow=open;html=1;endSize=12;startArrow=diamondThin;startSize=14;startFill=1;edgeStyle=orthogonalEdgeStyle;align=left;verticalAlign=bottom;rounded=0;sketch=1;hachureGap=4;jiggle=2;curveFitting=1;fontFamily=Architects Daughter;fontSource=https%3A%2F%2Ffonts.googleapis.com%2Fcss%3Ffamily%3DArchitects%2BDaughter;fontSize=16;entryX=1;entryY=0.25;entryDx=0;entryDy=0;curved=1;exitX=0.75;exitY=1;exitDx=0;exitDy=0;" parent="1" source="hopD-SCEnYGvzA_qel6d-68" target="hopD-SCEnYGvzA_qel6d-15" edge="1">
          <mxGeometry x="-1" y="3" relative="1" as="geometry">
            <mxPoint x="1227" y="360" as="sourcePoint" />
            <mxPoint x="1089" y="861" as="targetPoint" />
            <Array as="points">
              <mxPoint x="2100" y="-7" />
              <mxPoint x="2100" y="253" />
            </Array>
          </mxGeometry>
        </mxCell>
        <mxCell id="hopD-SCEnYGvzA_qel6d-73" value="1" style="endArrow=open;html=1;endSize=12;startArrow=diamondThin;startSize=14;startFill=1;edgeStyle=orthogonalEdgeStyle;align=left;verticalAlign=bottom;rounded=0;sketch=1;hachureGap=4;jiggle=2;curveFitting=1;fontFamily=Architects Daughter;fontSource=https%3A%2F%2Ffonts.googleapis.com%2Fcss%3Ffamily%3DArchitects%2BDaughter;fontSize=16;entryX=1;entryY=0.75;entryDx=0;entryDy=0;curved=1;exitX=1;exitY=0.75;exitDx=0;exitDy=0;" parent="1" source="hopD-SCEnYGvzA_qel6d-25" target="hopD-SCEnYGvzA_qel6d-15" edge="1">
          <mxGeometry x="-1" y="3" relative="1" as="geometry">
            <mxPoint x="410" y="561" as="sourcePoint" />
            <mxPoint x="1131" y="1021" as="targetPoint" />
            <Array as="points">
              <mxPoint x="387" y="442" />
              <mxPoint x="410" y="442" />
              <mxPoint x="410" y="846" />
              <mxPoint x="1086" y="846" />
              <mxPoint x="1086" y="870" />
              <mxPoint x="1874" y="870" />
              <mxPoint x="1874" y="270" />
            </Array>
          </mxGeometry>
        </mxCell>
        <mxCell id="hopD-SCEnYGvzA_qel6d-74" value="" style="endArrow=block;endFill=0;endSize=12;html=1;rounded=0;sketch=1;hachureGap=4;jiggle=2;curveFitting=1;fontFamily=Architects Daughter;fontSource=https%3A%2F%2Ffonts.googleapis.com%2Fcss%3Ffamily%3DArchitects%2BDaughter;fontSize=16;exitX=0.25;exitY=1;exitDx=0;exitDy=0;edgeStyle=orthogonalEdgeStyle;curved=1;entryX=0;entryY=0;entryDx=0;entryDy=0;strokeWidth=1;" parent="1" source="hopD-SCEnYGvzA_qel6d-63" target="hopD-SCEnYGvzA_qel6d-4" edge="1">
          <mxGeometry width="160" relative="1" as="geometry">
            <mxPoint x="830" y="206" as="sourcePoint" />
            <mxPoint x="762" y="447" as="targetPoint" />
          </mxGeometry>
        </mxCell>
        <mxCell id="hopD-SCEnYGvzA_qel6d-75" value="" style="endArrow=block;endFill=0;endSize=12;html=1;rounded=0;sketch=1;hachureGap=4;jiggle=2;curveFitting=1;fontFamily=Architects Daughter;fontSource=https%3A%2F%2Ffonts.googleapis.com%2Fcss%3Ffamily%3DArchitects%2BDaughter;fontSize=16;exitX=0;exitY=0.5;exitDx=0;exitDy=0;entryX=0.5;entryY=0;entryDx=0;entryDy=0;edgeStyle=orthogonalEdgeStyle;curved=1;strokeWidth=1;" parent="1" source="hopD-SCEnYGvzA_qel6d-64" target="hopD-SCEnYGvzA_qel6d-4" edge="1">
          <mxGeometry width="160" relative="1" as="geometry">
            <mxPoint x="840" y="216" as="sourcePoint" />
            <mxPoint x="772" y="457" as="targetPoint" />
            <Array as="points">
              <mxPoint x="1389" y="113" />
              <mxPoint x="860" y="113" />
            </Array>
          </mxGeometry>
        </mxCell>
        <mxCell id="hopD-SCEnYGvzA_qel6d-76" value="" style="endArrow=block;endFill=0;endSize=12;html=1;rounded=0;sketch=1;hachureGap=4;jiggle=2;curveFitting=1;fontFamily=Architects Daughter;fontSource=https%3A%2F%2Ffonts.googleapis.com%2Fcss%3Ffamily%3DArchitects%2BDaughter;fontSize=16;exitX=0;exitY=0.25;exitDx=0;exitDy=0;edgeStyle=orthogonalEdgeStyle;curved=1;entryX=0.25;entryY=0;entryDx=0;entryDy=0;strokeWidth=1;" parent="1" source="hopD-SCEnYGvzA_qel6d-65" target="hopD-SCEnYGvzA_qel6d-4" edge="1">
          <mxGeometry width="160" relative="1" as="geometry">
            <mxPoint x="742" y="85" as="sourcePoint" />
            <mxPoint x="656" y="449" as="targetPoint" />
            <Array as="points">
              <mxPoint x="808" y="54" />
            </Array>
          </mxGeometry>
        </mxCell>
        <mxCell id="hopD-SCEnYGvzA_qel6d-90" style="edgeStyle=orthogonalEdgeStyle;rounded=0;sketch=1;hachureGap=4;jiggle=2;curveFitting=1;orthogonalLoop=1;jettySize=auto;html=1;entryX=0;entryY=0.25;entryDx=0;entryDy=0;fontFamily=Architects Daughter;fontSource=https%3A%2F%2Ffonts.googleapis.com%2Fcss%3Ffamily%3DArchitects%2BDaughter;fontSize=16;curved=1;endArrow=block;endFill=0;" parent="1" source="hopD-SCEnYGvzA_qel6d-77" target="hopD-SCEnYGvzA_qel6d-85" edge="1">
          <mxGeometry relative="1" as="geometry" />
        </mxCell>
        <mxCell id="hopD-SCEnYGvzA_qel6d-77" value="&amp;nbsp; &amp;nbsp; &amp;nbsp; &amp;nbsp; &amp;nbsp; &amp;nbsp; &amp;nbsp; RecordBook&lt;br&gt;Records" style="swimlane;fontStyle=1;align=left;verticalAlign=top;childLayout=stackLayout;horizontal=1;startSize=26;horizontalStack=0;resizeParent=1;resizeParentMax=0;resizeLast=0;collapsible=1;marginBottom=0;whiteSpace=wrap;html=1;sketch=1;hachureGap=4;jiggle=2;curveFitting=1;fontFamily=Architects Daughter;fontSource=https%3A%2F%2Ffonts.googleapis.com%2Fcss%3Ffamily%3DArchitects%2BDaughter;fontSize=20;swimlaneFillColor=none;labelBackgroundColor=none;rounded=1;fillColor=#67AB9F;fillStyle=solid;" parent="1" vertex="1">
          <mxGeometry x="287" y="-419" width="352" height="125" as="geometry">
            <mxRectangle x="470" y="540" width="80" height="40" as="alternateBounds" />
          </mxGeometry>
        </mxCell>
        <mxCell id="hopD-SCEnYGvzA_qel6d-89" style="edgeStyle=orthogonalEdgeStyle;rounded=0;sketch=1;hachureGap=4;jiggle=2;curveFitting=1;orthogonalLoop=1;jettySize=auto;html=1;fontFamily=Architects Daughter;fontSource=https%3A%2F%2Ffonts.googleapis.com%2Fcss%3Ffamily%3DArchitects%2BDaughter;fontSize=16;curved=1;entryX=1;entryY=0.25;entryDx=0;entryDy=0;endArrow=block;endFill=0;" parent="1" source="hopD-SCEnYGvzA_qel6d-78" target="hopD-SCEnYGvzA_qel6d-85" edge="1">
          <mxGeometry relative="1" as="geometry">
            <mxPoint x="1182.4117647058824" y="-259.17647058823536" as="targetPoint" />
          </mxGeometry>
        </mxCell>
        <mxCell id="hopD-SCEnYGvzA_qel6d-78" value="&amp;nbsp; &amp;nbsp; &amp;nbsp; &amp;nbsp; &amp;nbsp; &amp;nbsp; &amp;nbsp; &amp;nbsp; &amp;nbsp; &amp;nbsp; NotesBook&lt;br&gt;NotesRecords" style="swimlane;fontStyle=1;align=left;verticalAlign=top;childLayout=stackLayout;horizontal=1;startSize=26;horizontalStack=0;resizeParent=1;resizeParentMax=0;resizeLast=0;collapsible=1;marginBottom=0;whiteSpace=wrap;html=1;sketch=1;hachureGap=4;jiggle=2;curveFitting=1;fontFamily=Architects Daughter;fontSource=https%3A%2F%2Ffonts.googleapis.com%2Fcss%3Ffamily%3DArchitects%2BDaughter;fontSize=20;swimlaneFillColor=none;labelBackgroundColor=none;rounded=1;fillStyle=solid;fillColor=#67AB9F;" parent="1" vertex="1">
          <mxGeometry x="1275" y="-484" width="403" height="129" as="geometry">
            <mxRectangle x="470" y="540" width="80" height="40" as="alternateBounds" />
          </mxGeometry>
        </mxCell>
        <mxCell id="hopD-SCEnYGvzA_qel6d-79" value="1" style="endArrow=open;html=1;endSize=12;startArrow=diamondThin;startSize=14;startFill=0;edgeStyle=orthogonalEdgeStyle;align=left;verticalAlign=bottom;rounded=0;sketch=1;hachureGap=4;jiggle=2;curveFitting=1;fontFamily=Architects Daughter;fontSource=https%3A%2F%2Ffonts.googleapis.com%2Fcss%3Ffamily%3DArchitects%2BDaughter;fontSize=16;entryX=0.839;entryY=-0.005;entryDx=0;entryDy=0;entryPerimeter=0;curved=1;exitX=0.25;exitY=1;exitDx=0;exitDy=0;strokeWidth=1;" parent="1" source="hopD-SCEnYGvzA_qel6d-77" target="hopD-SCEnYGvzA_qel6d-25" edge="1">
          <mxGeometry x="-1" y="3" relative="1" as="geometry">
            <mxPoint x="496" y="-94" as="sourcePoint" />
            <mxPoint x="828" y="207" as="targetPoint" />
          </mxGeometry>
        </mxCell>
        <mxCell id="hopD-SCEnYGvzA_qel6d-80" value="1" style="endArrow=open;html=1;endSize=12;startArrow=diamondThin;startSize=14;startFill=0;edgeStyle=orthogonalEdgeStyle;align=left;verticalAlign=bottom;rounded=0;sketch=1;hachureGap=4;jiggle=2;curveFitting=1;fontFamily=Architects Daughter;fontSource=https%3A%2F%2Ffonts.googleapis.com%2Fcss%3Ffamily%3DArchitects%2BDaughter;fontSize=16;entryX=0.552;entryY=-0.021;entryDx=0;entryDy=0;entryPerimeter=0;curved=1;exitX=1;exitY=1;exitDx=0;exitDy=0;" parent="1" source="hopD-SCEnYGvzA_qel6d-78" target="hopD-SCEnYGvzA_qel6d-68" edge="1">
          <mxGeometry x="-1" y="3" relative="1" as="geometry">
            <mxPoint x="506" y="-84" as="sourcePoint" />
            <mxPoint x="369" y="367" as="targetPoint" />
          </mxGeometry>
        </mxCell>
        <mxCell id="hopD-SCEnYGvzA_qel6d-84" style="edgeStyle=orthogonalEdgeStyle;rounded=0;sketch=1;hachureGap=4;jiggle=2;curveFitting=1;orthogonalLoop=1;jettySize=auto;html=1;fontFamily=Architects Daughter;fontSource=https%3A%2F%2Ffonts.googleapis.com%2Fcss%3Ffamily%3DArchitects%2BDaughter;fontSize=16;entryX=0.419;entryY=-0.023;entryDx=0;entryDy=0;entryPerimeter=0;curved=1;" parent="1" source="hopD-SCEnYGvzA_qel6d-81" target="hopD-SCEnYGvzA_qel6d-82" edge="1">
          <mxGeometry relative="1" as="geometry">
            <mxPoint x="835" y="-337" as="targetPoint" />
          </mxGeometry>
        </mxCell>
        <mxCell id="hopD-SCEnYGvzA_qel6d-81" value="MyCmd" style="swimlane;fontStyle=1;align=center;verticalAlign=top;childLayout=stackLayout;horizontal=1;startSize=26;horizontalStack=0;resizeParent=1;resizeParentMax=0;resizeLast=0;collapsible=1;marginBottom=0;whiteSpace=wrap;html=1;sketch=1;hachureGap=4;jiggle=2;curveFitting=1;fontFamily=Architects Daughter;fontSource=https%3A%2F%2Ffonts.googleapis.com%2Fcss%3Ffamily%3DArchitects%2BDaughter;fontSize=20;swimlaneFillColor=none;labelBackgroundColor=none;rounded=1;fillColor=#67AB9F;fillStyle=solid;" parent="1" vertex="1">
          <mxGeometry x="771" y="-840" width="387" height="86" as="geometry">
            <mxRectangle x="470" y="540" width="80" height="40" as="alternateBounds" />
          </mxGeometry>
        </mxCell>
        <mxCell id="hopD-SCEnYGvzA_qel6d-102" value="&lt;b&gt;RecordBook&lt;br&gt;NotesBook&lt;/b&gt;" style="text;html=1;align=center;verticalAlign=middle;resizable=0;points=[];autosize=1;strokeColor=none;fillColor=none;fontSize=20;fontFamily=Architects Daughter;" parent="hopD-SCEnYGvzA_qel6d-81" vertex="1">
          <mxGeometry y="26" width="387" height="60" as="geometry" />
        </mxCell>
        <mxCell id="hopD-SCEnYGvzA_qel6d-83" style="edgeStyle=orthogonalEdgeStyle;rounded=0;sketch=1;hachureGap=4;jiggle=2;curveFitting=1;orthogonalLoop=1;jettySize=auto;html=1;fontFamily=Architects Daughter;fontSource=https%3A%2F%2Ffonts.googleapis.com%2Fcss%3Ffamily%3DArchitects%2BDaughter;fontSize=16;entryX=0.75;entryY=0;entryDx=0;entryDy=0;curved=1;startArrow=none;startFill=0;endArrow=block;endFill=0;" parent="1" source="hopD-SCEnYGvzA_qel6d-82" target="hopD-SCEnYGvzA_qel6d-12" edge="1">
          <mxGeometry relative="1" as="geometry">
            <mxPoint x="777" y="-25" as="targetPoint" />
          </mxGeometry>
        </mxCell>
        <mxCell id="hopD-SCEnYGvzA_qel6d-82" value="BotForUser" style="swimlane;fontStyle=2;align=center;verticalAlign=top;childLayout=stackLayout;horizontal=1;startSize=26;horizontalStack=0;resizeParent=1;resizeParentMax=0;resizeLast=0;collapsible=1;marginBottom=0;whiteSpace=wrap;html=1;sketch=1;hachureGap=4;jiggle=2;curveFitting=1;fontFamily=Architects Daughter;fontSource=https%3A%2F%2Ffonts.googleapis.com%2Fcss%3Ffamily%3DArchitects%2BDaughter;fontSize=20;swimlaneFillColor=none;labelBackgroundColor=none;rounded=1;fillColor=#67AB9F;fillStyle=solid;" parent="1" vertex="1">
          <mxGeometry x="1017" y="-664" width="290" height="53" as="geometry">
            <mxRectangle x="470" y="540" width="80" height="40" as="alternateBounds" />
          </mxGeometry>
        </mxCell>
        <mxCell id="hopD-SCEnYGvzA_qel6d-85" value="UserList" style="swimlane;fontStyle=1;align=left;verticalAlign=top;childLayout=stackLayout;horizontal=1;startSize=26;horizontalStack=0;resizeParent=1;resizeParentMax=0;resizeLast=0;collapsible=1;marginBottom=0;whiteSpace=wrap;html=1;sketch=1;hachureGap=4;jiggle=2;curveFitting=1;fontFamily=Architects Daughter;fontSource=https%3A%2F%2Ffonts.googleapis.com%2Fcss%3Ffamily%3DArchitects%2BDaughter;fontSize=20;swimlaneFillColor=none;labelBackgroundColor=none;rounded=1;fillColor=#67AB9F;fillStyle=solid;" parent="1" vertex="1">
          <mxGeometry x="961" y="-258" width="340" height="35" as="geometry">
            <mxRectangle x="470" y="540" width="80" height="40" as="alternateBounds" />
          </mxGeometry>
        </mxCell>
        <mxCell id="hopD-SCEnYGvzA_qel6d-86" value="cmd.Cmd" style="swimlane;fontStyle=1;align=center;verticalAlign=top;childLayout=stackLayout;horizontal=1;startSize=26;horizontalStack=0;resizeParent=1;resizeParentMax=0;resizeLast=0;collapsible=1;marginBottom=0;whiteSpace=wrap;html=1;sketch=1;hachureGap=4;jiggle=2;curveFitting=1;fontFamily=Architects Daughter;fontSource=https%3A%2F%2Ffonts.googleapis.com%2Fcss%3Ffamily%3DArchitects%2BDaughter;fontSize=20;swimlaneFillColor=none;labelBackgroundColor=none;rounded=1;fillColor=#67AB9F;fillStyle=solid;" parent="1" vertex="1">
          <mxGeometry x="543" y="-632" width="286" height="58" as="geometry">
            <mxRectangle x="470" y="540" width="80" height="40" as="alternateBounds" />
          </mxGeometry>
        </mxCell>
        <mxCell id="hopD-SCEnYGvzA_qel6d-87" style="edgeStyle=orthogonalEdgeStyle;rounded=0;sketch=1;hachureGap=4;jiggle=2;curveFitting=1;orthogonalLoop=1;jettySize=auto;html=1;entryX=-0.022;entryY=0.5;entryDx=0;entryDy=0;entryPerimeter=0;fontFamily=Architects Daughter;fontSource=https%3A%2F%2Ffonts.googleapis.com%2Fcss%3Ffamily%3DArchitects%2BDaughter;fontSize=16;curved=1;" parent="1" source="hopD-SCEnYGvzA_qel6d-81" target="hopD-SCEnYGvzA_qel6d-86" edge="1">
          <mxGeometry relative="1" as="geometry">
            <Array as="points">
              <mxPoint x="350" y="-701" />
              <mxPoint x="350" y="-560" />
            </Array>
          </mxGeometry>
        </mxCell>
        <mxCell id="hopD-SCEnYGvzA_qel6d-94" value="" style="endArrow=open;html=1;endSize=12;startArrow=diamondThin;startSize=14;startFill=1;edgeStyle=orthogonalEdgeStyle;align=left;verticalAlign=bottom;rounded=0;sketch=1;hachureGap=4;jiggle=2;curveFitting=1;fontFamily=Architects Daughter;fontSource=https%3A%2F%2Ffonts.googleapis.com%2Fcss%3Ffamily%3DArchitects%2BDaughter;fontSize=16;entryX=1;entryY=0.5;entryDx=0;entryDy=0;exitX=0;exitY=1;exitDx=0;exitDy=0;curved=1;" parent="1" source="hopD-SCEnYGvzA_qel6d-25" target="hopD-SCEnYGvzA_qel6d-20" edge="1">
          <mxGeometry x="-1" y="3" relative="1" as="geometry">
            <mxPoint x="230" y="124" as="sourcePoint" />
            <mxPoint x="1056" y="989" as="targetPoint" />
            <Array as="points">
              <mxPoint x="126" y="760" />
              <mxPoint x="922" y="760" />
              <mxPoint x="922" y="641" />
            </Array>
          </mxGeometry>
        </mxCell>
        <mxCell id="hopD-SCEnYGvzA_qel6d-20" value="Email" style="swimlane;fontStyle=1;align=center;verticalAlign=top;childLayout=stackLayout;horizontal=1;startSize=26;horizontalStack=0;resizeParent=1;resizeParentMax=0;resizeLast=0;collapsible=1;marginBottom=0;whiteSpace=wrap;html=1;sketch=1;hachureGap=4;jiggle=2;curveFitting=1;fontFamily=Architects Daughter;fontSource=https%3A%2F%2Ffonts.googleapis.com%2Fcss%3Ffamily%3DArchitects%2BDaughter;fontSize=20;swimlaneFillColor=none;labelBackgroundColor=none;rounded=1;fillColor=#67AB9F;fillStyle=solid;" parent="1" vertex="1">
          <mxGeometry x="553" y="450" width="210" height="34" as="geometry">
            <mxRectangle x="470" y="540" width="80" height="40" as="alternateBounds" />
          </mxGeometry>
        </mxCell>
        <mxCell id="hopD-SCEnYGvzA_qel6d-104" value="1" style="endArrow=open;html=1;endSize=12;startArrow=diamondThin;startSize=14;startFill=0;edgeStyle=orthogonalEdgeStyle;align=left;verticalAlign=bottom;rounded=0;sketch=1;hachureGap=4;jiggle=2;curveFitting=1;fontFamily=Architects Daughter;fontSource=https%3A%2F%2Ffonts.googleapis.com%2Fcss%3Ffamily%3DArchitects%2BDaughter;fontSize=16;entryX=0;entryY=0;entryDx=0;entryDy=0;curved=1;strokeWidth=1;exitX=0;exitY=0;exitDx=0;exitDy=0;" parent="1" source="hopD-SCEnYGvzA_qel6d-81" target="hopD-SCEnYGvzA_qel6d-77" edge="1">
          <mxGeometry x="-1" y="3" relative="1" as="geometry">
            <mxPoint x="277" y="-830" as="sourcePoint" />
            <mxPoint x="355" y="-173" as="targetPoint" />
            <Array as="points">
              <mxPoint x="374" y="-840" />
              <mxPoint x="374" y="-835" />
              <mxPoint x="254" y="-835" />
            </Array>
          </mxGeometry>
        </mxCell>
        <mxCell id="hopD-SCEnYGvzA_qel6d-105" value="1" style="endArrow=open;html=1;endSize=12;startArrow=diamondThin;startSize=14;startFill=0;edgeStyle=orthogonalEdgeStyle;align=left;verticalAlign=bottom;rounded=0;sketch=1;hachureGap=4;jiggle=2;curveFitting=1;fontFamily=Architects Daughter;fontSource=https%3A%2F%2Ffonts.googleapis.com%2Fcss%3Ffamily%3DArchitects%2BDaughter;fontSize=16;entryX=1;entryY=0;entryDx=0;entryDy=0;curved=1;strokeWidth=1;exitX=1;exitY=0;exitDx=0;exitDy=0;shadow=1;" parent="1" source="hopD-SCEnYGvzA_qel6d-81" target="hopD-SCEnYGvzA_qel6d-78" edge="1">
          <mxGeometry x="-1" y="3" relative="1" as="geometry">
            <mxPoint x="781" y="-830" as="sourcePoint" />
            <mxPoint x="264" y="-292" as="targetPoint" />
            <Array as="points">
              <mxPoint x="1158" y="-884" />
              <mxPoint x="1765" y="-884" />
              <mxPoint x="1765" y="-825" />
              <mxPoint x="2070" y="-825" />
              <mxPoint x="2070" y="-293" />
              <mxPoint x="1678" y="-293" />
            </Array>
          </mxGeometry>
        </mxCell>
        <mxCell id="hopD-SCEnYGvzA_qel6d-106" style="edgeStyle=orthogonalEdgeStyle;rounded=0;orthogonalLoop=1;jettySize=auto;html=1;exitX=0.5;exitY=0;exitDx=0;exitDy=0;entryX=0.529;entryY=0.176;entryDx=0;entryDy=0;entryPerimeter=0;" parent="1" source="hopD-SCEnYGvzA_qel6d-78" target="hopD-SCEnYGvzA_qel6d-78" edge="1">
          <mxGeometry relative="1" as="geometry" />
        </mxCell>
      </root>
    </mxGraphModel>
  </diagram>
</mxfile>
